<?xml version="1.0" encoding="UTF-8"?>
<svg width="13px" height="11px" viewBox="0 0 13 11" version="1.1" xmlns="http://www.w3.org/2000/svg" xmlns:xlink="http://www.w3.org/1999/xlink">
    <title>#</title>
    <g id="Page-1" stroke="none" stroke-width="1" fill="none" fill-rule="evenodd" opacity="0.390438988">
        <g id="3" transform="translate(-28.000000, -63.000000)" fill="#BDBDBE">
            <g id="Autocomplete-popup" transform="translate(9.000000, 16.000000)">
                <g id="Selected-option" transform="translate(9.000000, 36.000000)">
                    <g id="#" transform="translate(10.000000, 11.000000)">
                        <path d="M2.5186832,11 C2.3120257,11 2.15554127,10.8282167 2.19165817,10.6410333 L2.59403911,8.55555556 L0.332232287,8.55555556 C0.125893646,8.55555556 -0.0305044269,8.38432222 0.00506112205,8.19732222 L0.121310115,7.58621111 C0.149123516,7.44003333 0.28713432,7.33333333 0.448481279,7.33333333 L2.8265371,7.33333333 L3.53067385,3.66666667 L1.26886703,3.66666667 C1.06252839,3.66666667 0.906130313,3.495415 0.941695862,3.30843944 L1.05794485,2.69732833 C1.08575826,2.55112 1.22376906,2.44444444 1.38511602,2.44444444 L3.76317184,2.44444444 L4.18615875,0.252156667 C4.21430429,0.106278333 4.35214238,0 4.51318377,0 L5.16708103,0 C5.37371195,0 5.53021631,0.171765 5.49407948,0.358954444 L5.09173175,2.44444444 L9.07740486,2.44444444 L9.50041833,0.252156667 C9.52851738,0.106278333 9.66635547,0 9.82744336,0 L10.4812941,0 C10.6879516,0 10.844456,0.171765 10.8083191,0.358954444 L10.4059648,2.44444444 L12.6677716,2.44444444 C12.874097,2.44444444 13.0305349,2.61569611 12.9949295,2.80267167 L12.8786805,3.41378278 C12.8509136,3.55999111 12.7128762,3.66666667 12.5515226,3.66666667 L10.1734668,3.66666667 L9.46933003,7.33333333 L11.7311369,7.33333333 C11.9374622,7.33333333 12.0939001,7.50456667 12.0582947,7.69156667 L11.9420457,8.30267778 C11.9142788,8.44885556 11.7762415,8.55555556 11.6148879,8.55555556 L9.23683205,8.55555556 L8.81381857,10.7478556 C8.78571953,10.8937278 8.64788144,11 8.48679355,11 L7.83294278,11 C7.62628529,11 7.46978093,10.8282167 7.50591776,10.6410333 L7.90827213,8.55555556 L3.92259903,8.55555556 L3.49961212,10.7478556 C3.47146658,10.8937278 3.33362185,11 3.17258046,11 L2.5186832,11 Z M4.85952605,3.66666667 L4.1553893,7.33333333 L8.14103583,7.33333333 L8.84517258,3.66666667 L4.85952605,3.66666667 Z" id="Shape"></path>
                    </g>
                </g>
            </g>
        </g>
    </g>
</svg>